<svg xmlns="http://www.w3.org/2000/svg" width="22" height="22" viewBox="0 0 22 22">
  <g id="Group_7054" data-name="Group 7054" transform="translate(36.541 473.763)">
    <path id="Path_32" data-name="Path 32" d="M-25.541-473.763c-2.988,0-3.362.013-4.535.066a8.069,8.069,0,0,0-2.67.511,5.387,5.387,0,0,0-1.948,1.269,5.394,5.394,0,0,0-1.269,1.948,8.073,8.073,0,0,0-.511,2.67c-.054,1.173-.066,1.548-.066,4.535s.013,3.362.066,4.535a8.07,8.07,0,0,0,.511,2.67,5.394,5.394,0,0,0,1.269,1.949,5.394,5.394,0,0,0,1.948,1.269,8.07,8.07,0,0,0,2.67.511c1.173.054,1.548.066,4.535.066s3.362-.013,4.535-.066a8.073,8.073,0,0,0,2.67-.511,5.4,5.4,0,0,0,1.948-1.269,5.39,5.39,0,0,0,1.269-1.949,8.076,8.076,0,0,0,.511-2.67c.053-1.173.066-1.548.066-4.535s-.013-3.362-.066-4.535a8.079,8.079,0,0,0-.511-2.67,5.389,5.389,0,0,0-1.269-1.948,5.389,5.389,0,0,0-1.948-1.269,8.072,8.072,0,0,0-2.67-.511C-22.179-473.75-22.554-473.763-25.541-473.763Zm0,1.982c2.937,0,3.285.011,4.445.064a6.089,6.089,0,0,1,2.043.379,3.411,3.411,0,0,1,1.265.823,3.408,3.408,0,0,1,.823,1.265,6.083,6.083,0,0,1,.379,2.043c.053,1.16.064,1.508.064,4.445s-.011,3.285-.064,4.445a6.079,6.079,0,0,1-.379,2.042,3.406,3.406,0,0,1-.823,1.265,3.408,3.408,0,0,1-1.265.823,6.09,6.09,0,0,1-2.043.379c-1.16.053-1.507.064-4.445.064s-3.285-.011-4.445-.064a6.086,6.086,0,0,1-2.042-.379,3.406,3.406,0,0,1-1.265-.823,3.41,3.41,0,0,1-.823-1.265,6.086,6.086,0,0,1-.379-2.042c-.053-1.16-.064-1.508-.064-4.445s.011-3.285.064-4.445a6.086,6.086,0,0,1,.379-2.042,3.408,3.408,0,0,1,.823-1.265,3.407,3.407,0,0,1,1.265-.823,6.087,6.087,0,0,1,2.042-.379c1.16-.053,1.508-.064,4.445-.064" transform="translate(0 0)" fill="#fff"/>
    <path id="Path_33" data-name="Path 33" d="M-10.207-448.184a3.667,3.667,0,0,1-3.667-3.667,3.667,3.667,0,0,1,3.667-3.667,3.667,3.667,0,0,1,3.667,3.667A3.667,3.667,0,0,1-10.207-448.184Zm0-9.315a5.649,5.649,0,0,0-5.649,5.649,5.649,5.649,0,0,0,5.649,5.649,5.649,5.649,0,0,0,5.649-5.649,5.649,5.649,0,0,0-5.649-5.649m7.192-.223a1.32,1.32,0,0,1-1.32,1.32,1.32,1.32,0,0,1-1.32-1.32,1.32,1.32,0,0,1,1.32-1.32,1.32,1.32,0,0,1,1.32,1.32" transform="translate(-15.334 -10.912)" fill="#fff"/>
  </g>
</svg>
