<svg xmlns="http://www.w3.org/2000/svg" width="17.241" height="21.269" viewBox="0 0 17.241 21.269">
  <path id="Path_9256" data-name="Path 9256" d="M45.9-1562.767c-2.112-2.5-4.268-4.874-6.215-7.408a7.227,7.227,0,0,1-.71-8.1,7.33,7.33,0,0,1,7.039-4.258,7.321,7.321,0,0,1,6.913,4.457,7.332,7.332,0,0,1-.994,8.163C50-1567.5,47.943-1565.175,45.9-1562.767Zm.021-15.481a3.181,3.181,0,0,0-3.216,3.151,3.22,3.22,0,0,0,3.181,3.254,3.221,3.221,0,0,0,3.217-3.219A3.184,3.184,0,0,0,45.924-1578.248Z" transform="translate(-37.274 1583.286)" fill="#fff" stroke="#000" stroke-linecap="round" stroke-linejoin="round" stroke-width="1.5"/>
</svg>
